<svg width="407" height="271" viewBox="0 0 407 271" fill="none" xmlns="http://www.w3.org/2000/svg">
	<g clip-path="url(#clip0)">
		<path d="M88.0152 200.016C91.5106 200.016 94.3441 197.182 94.3441 193.687C94.3441 193.463 94.3318 193.242 94.3091 193.024C95.5441 193.408 97.0165 193.342 98.1196 193.189C98.5449 193.129 98.693 192.61 98.3799 192.316C97.211 191.219 96.8476 189.069 96.8476 187.253C96.8476 184.235 93.6958 184.382 93.6958 184.382C91.2796 184.382 90.6446 186.98 90.6275 187.927C89.8304 187.565 88.9478 187.358 88.0152 187.358C84.5198 187.358 81.6862 190.191 81.6862 193.687C81.6862 197.182 84.5198 200.016 88.0152 200.016ZM84.9485 189.667C85.3735 190.959 86.5558 192.791 89.8701 192.791C89.8701 192.791 90.0246 195.831 92.0852 196.686C91.1623 197.935 89.684 198.75 88.0152 198.75C85.2233 198.75 82.952 196.479 82.952 193.687C82.952 192.048 83.7377 190.593 84.9485 189.667Z" fill="#F1F3F2"></path>
		<path d="M101.381 227.169L94.4009 206.373C93.5588 203.864 91.475 201.972 88.8968 201.375L84.4866 200.355C82.6157 199.922 80.9949 198.76 79.9837 197.127L71.0447 182.694C71.0167 183.052 70.9382 183.412 70.7866 183.759L68.6927 188.551L75.8602 203.873C76.9332 206.166 77.2689 208.733 76.8228 211.226C76.2052 214.677 75.4203 219.898 75.4203 224.139C75.4203 229.094 76.2851 232.075 76.789 233.391C76.9748 233.877 77.4467 234.192 77.9664 234.192H94.511C95.2005 234.192 95.7631 233.64 95.7765 232.951L95.8469 229.331L89.4993 213.802C89.367 213.478 89.5222 213.109 89.8457 212.976C90.1708 212.845 90.5389 213 90.6712 213.323L95.909 226.137L95.9092 226.125L97.1565 228.842C97.6852 229.994 99.0531 230.492 100.198 229.949C101.24 229.456 101.748 228.261 101.381 227.169Z" fill="#F1F3F2"></path>
		<path d="M67.9784 187.024L69.6266 183.252C69.8205 182.808 69.8371 182.331 69.7143 181.894C69.5743 181.397 69.2515 180.954 68.7719 180.681H68.7719C68.456 180.502 68.1125 180.417 67.7737 180.417C67.06 180.417 66.3673 180.795 65.9983 181.465L58.4455 195.285C56.7367 198.412 53.7227 200.589 50.2319 201.304C46.9488 201.977 43.0038 203.689 41.3294 207.954C38.3355 215.581 35.3672 223.562 34.1208 227.211C33.7358 228.338 34.2984 229.566 35.4019 230.014C35.6775 230.126 35.9638 230.179 36.2463 230.179C37.0265 230.179 37.7771 229.771 38.1895 229.06L41.573 223.631L46.4847 212.095C46.6213 211.773 46.993 211.623 47.3147 211.76C47.6364 211.897 47.786 212.269 47.6491 212.59L43.0791 223.325V232.926C43.0791 233.625 43.6433 234.192 44.3423 234.192C47.1492 234.192 53.8769 234.192 56.6722 234.192C57.3624 234.192 57.9245 233.64 57.9355 232.95C58.0013 228.846 58.3075 222.297 58.4799 218.777C58.5501 217.343 58.9219 215.938 59.6145 214.68C60.9084 212.332 61.3988 210.618 60.615 208.266C59.6506 205.373 60.3707 204.436 60.3707 204.436L67.9784 187.024Z" fill="#F1F3F2"></path>
		<path d="M38.2261 196.1C38.5545 196.1 38.8648 196.033 39.159 195.932C39.1556 195.989 39.1421 196.042 39.1421 196.1C39.1421 197.695 40.4357 198.989 42.0314 198.989C42.8852 198.989 43.6445 198.611 44.1734 198.023C45.3275 199.247 46.9597 200.015 48.7749 200.015C52.2703 200.015 55.1039 197.182 55.1039 193.686C55.1039 193.35 55.07 193.022 55.0194 192.7C56.3093 192.669 57.3469 191.618 57.3469 190.321C57.3469 189.802 57.1769 189.326 56.8956 188.935C57.3344 188.502 57.6074 187.902 57.6074 187.238C57.6074 186.058 56.7494 185.086 55.6248 184.894C55.6855 184.661 55.7281 184.42 55.7281 184.168C55.7281 182.751 54.7061 181.577 53.36 181.331C53.3604 181.313 53.3653 181.297 53.3653 181.279C53.3653 179.962 52.2979 178.895 50.9811 178.895C50.0199 178.895 49.1967 179.466 48.8194 180.286C48.4392 180.102 48.0179 179.989 47.567 179.989C47.0516 179.989 46.5746 180.136 46.1557 180.372C45.7214 179.785 45.0297 179.399 44.2434 179.399C43.1273 179.399 42.1977 180.17 41.938 181.205C40.6297 181.481 39.647 182.64 39.647 184.031C39.647 184.336 39.7073 184.624 39.795 184.9C38.3513 185.061 37.2243 186.271 37.2243 187.758C37.2243 187.882 37.2456 188.001 37.2609 188.121C36.3637 188.611 35.7479 189.552 35.7479 190.647C35.7479 190.952 35.8081 191.24 35.8956 191.516C35.5481 191.993 35.3369 192.575 35.3369 193.21C35.3369 194.806 36.6304 196.1 38.2261 196.1ZM48.7749 198.749C47.3733 198.749 46.1034 198.176 45.1857 197.253C46.376 197.119 47.3048 196.121 47.3048 194.895C47.3048 194.666 47.2622 194.449 47.2018 194.239C48.1164 193.905 48.7731 193.036 48.7731 192.006C48.7731 192 48.7714 191.995 48.7713 191.989C50.0051 191.898 50.9811 190.879 50.9811 189.622C50.9811 189.445 50.9587 189.274 50.9221 189.108C51.5593 189.408 52.1235 189.835 52.5822 190.359C53.0683 190.915 53.4344 191.576 53.6416 192.305C53.7667 192.745 53.8381 193.207 53.8381 193.686C53.8381 196.478 51.5668 198.749 48.7749 198.749Z" fill="#F1F3F2"></path>
		<path d="M67.9921 178.547C68.6911 178.547 69.2579 177.98 69.2579 177.281V172.506C69.2579 171.807 68.6911 171.24 67.9921 171.24C67.2931 171.24 66.7263 171.807 66.7263 172.506V177.281C66.7263 177.98 67.2931 178.547 67.9921 178.547Z" fill="#F1F3F2"></path>
		<path d="M71.4284 180.235C71.7523 180.235 72.0764 180.112 72.3234 179.864L75.6998 176.488C76.1943 175.994 76.1943 175.192 75.6998 174.698C75.206 174.204 74.4038 174.204 73.9099 174.698L70.5334 178.074C70.039 178.569 70.039 179.37 70.5334 179.864C70.7804 180.112 71.1045 180.235 71.4284 180.235Z" fill="#F1F3F2"></path>
		<path d="M63.473 179.864C63.72 180.112 64.0441 180.235 64.368 180.235C64.6919 180.235 65.016 180.112 65.263 179.864C65.7574 179.37 65.7574 178.569 65.263 178.074L61.8865 174.698C61.3926 174.204 60.5904 174.204 60.0965 174.698C59.6021 175.192 59.6021 175.994 60.0965 176.488L63.473 179.864Z" fill="#F1F3F2"></path>
	</g>
	<path fill-rule="evenodd" clip-rule="evenodd" d="M85.6155 69.5536V66.3359C85.6155 66.1992 85.563 66.0795 85.4893 65.9761C86.5562 64.6862 90.7332 59.0751 90.7332 50.2544C90.7332 38.0354 77.1549 34.2402 72.2089 34.2402C67.2629 34.2402 53.685 38.0354 53.685 50.2544C53.685 59.5722 58.4388 65.4109 59.0952 66.173L59.0874 66.2007C59.0748 66.2444 59.0623 66.2882 59.0623 66.3359V69.7925C50.4359 71.3805 44.0993 79.2827 44.8041 88.3738L45.7504 100.578C45.8012 101.234 46.3483 101.74 47.0062 101.74H54.1833H65.3845H66.0167H84.4957C91.3991 101.74 96.9955 96.1371 96.9955 89.2254V82.0118C96.9955 75.4786 91.9935 70.1215 85.6155 69.5536ZM95.7308 83.947V89.2255C95.7308 95.429 90.6907 100.476 84.4954 100.476L66.0165 100.478V91.8509V91.6878C66.0165 91.3044 66.3286 90.9926 66.712 90.9926H81.3645C82.1369 90.9926 82.8317 90.4963 83.1346 89.7288C83.6291 88.4743 85.8845 88.5712 85.9154 88.5737C86.258 88.5897 86.563 88.3316 86.5855 87.9828C86.6078 87.6346 86.3435 87.3339 85.995 87.3117C85.8669 87.3037 82.7996 87.1314 81.9584 89.2645C81.8701 89.4887 81.6676 89.7282 81.3645 89.7282H66.712C65.6312 89.7282 64.752 90.6074 64.752 91.6878V92.0751L60.3302 92.8593C57.7807 93.3113 55.5834 94.7748 54.1762 96.8361L53.4446 91.1137C53.1347 88.5675 53.1214 86.101 53.4051 83.782C54.3053 76.4257 57.1762 75.1328 57.2472 75.1026C57.5692 74.9791 57.734 74.6198 57.6155 74.295C57.4957 73.9678 57.1327 73.7986 56.8048 73.9178C56.6567 73.9721 53.1646 75.3372 52.1499 83.6289C51.8539 86.0491 51.8672 88.6187 52.1901 91.2705L53.1535 98.8055C53.0094 99.1848 52.8844 99.574 52.7889 99.9758C52.748 100.148 52.7489 100.316 52.7689 100.48L47.0109 100.48L46.0646 88.2762C45.71 83.7036 47.2294 79.3325 50.3428 75.9684C53.4502 72.6108 57.6794 70.7616 62.2512 70.7616H84.4954C88.3336 70.7616 91.7252 72.7013 93.7529 75.6505C92.3373 76.3798 91.3679 77.8537 91.3679 79.5558C91.3679 81.9718 93.3187 83.9308 95.7308 83.947ZM54.0193 100.268C54.0068 100.321 54.0174 100.369 54.0511 100.412C54.0847 100.454 54.1292 100.476 54.1834 100.476H54.6258H64.7523V93.359L60.5512 94.1039C57.7931 94.593 55.5171 96.4472 54.4493 98.9699C54.2731 99.3861 54.1262 99.8184 54.0193 100.268ZM63.5407 41.6857C66.4506 41.1029 69.4038 40.8115 72.3566 40.8115C75.4194 40.8115 78.4818 41.1249 81.4957 41.7516C85.9039 42.6683 89.0637 46.5527 89.0637 51.0552V51.1623C89.0637 55.8079 85.7049 59.7725 81.1224 60.5358C78.223 61.0187 75.2934 61.2602 72.3637 61.2602C69.54 61.2602 66.7162 61.0359 63.9191 60.5871L63.3512 60.4961C58.7431 59.7568 55.3539 55.7805 55.3539 51.1134C55.3539 46.5847 58.5498 42.6852 62.9904 41.7959L63.5407 41.6857ZM60.3267 66.9681V69.497H62.2513H84.351V66.9681H60.3267ZM68.5453 95.418C69.2437 95.418 69.8098 94.8519 69.8098 94.1536C69.8098 93.4552 69.2437 92.8891 68.5453 92.8891C67.847 92.8891 67.2809 93.4552 67.2809 94.1536C67.2809 94.8519 67.847 95.418 68.5453 95.418ZM64.1199 74.5546C64.1199 75.253 63.5538 75.8191 62.8555 75.8191C62.1572 75.8191 61.591 75.253 61.591 74.5546C61.591 73.8563 62.1572 73.2902 62.8555 73.2902C63.5538 73.2902 64.1199 73.8563 64.1199 74.5546ZM62.8555 81.5093C63.5538 81.5093 64.1199 80.9432 64.1199 80.2449C64.1199 79.5466 63.5538 78.9804 62.8555 78.9804C62.1572 78.9804 61.591 79.5466 61.591 80.2449C61.591 80.9432 62.1572 81.5093 62.8555 81.5093ZM64.1199 85.9347C64.1199 86.6331 63.5538 87.1992 62.8555 87.1992C62.1572 87.1992 61.591 86.6331 61.591 85.9347C61.591 85.2364 62.1572 84.6703 62.8555 84.6703C63.5538 84.6703 64.1199 85.2364 64.1199 85.9347ZM68.5453 99.2115C69.2437 99.2115 69.8098 98.6454 69.8098 97.9471C69.8098 97.2487 69.2437 96.6826 68.5453 96.6826C67.847 96.6826 67.2809 97.2487 67.2809 97.9471C67.2809 98.6454 67.847 99.2115 68.5453 99.2115ZM49.623 63.0989C49.9981 64.0172 49.3465 65.0544 48.1876 66.027C48.0722 68.8362 45.7571 71.088 42.9199 71.088C41.5388 71.088 40.2839 70.5507 39.3421 69.6795C39.3101 69.6825 39.2765 69.6874 39.2428 69.6922C39.2033 69.698 39.1637 69.7037 39.1269 69.7063C38.9268 69.7205 38.7391 69.7273 38.5632 69.7273C36.9206 69.7273 36.3161 69.1414 36.1035 68.6209C35.8568 68.0177 35.9357 67.0086 37.6509 65.6091C37.7573 62.7912 40.0764 60.5298 42.9199 60.5298C44.3447 60.5298 45.6371 61.0997 46.5878 62.0206C48.6522 61.8744 49.3853 62.5166 49.623 63.0989ZM48.0127 64.442C48.3703 64.0378 48.5132 63.7256 48.4525 63.5769C48.4118 63.4774 48.1349 63.3259 47.5493 63.2764C47.7493 63.6404 47.9026 64.0323 48.0127 64.442ZM42.9199 61.7944C45.0008 61.7944 46.7164 63.3865 46.9144 65.4168C46.1046 66.0167 44.9664 66.6816 43.4518 67.3004C42.1716 67.8231 40.9142 68.1789 39.8129 68.3478C39.2463 67.6555 38.9052 66.7717 38.9052 65.8094C38.9052 63.5954 40.7062 61.7944 42.9199 61.7944ZM37.8241 67.1655C37.341 67.6817 37.2286 68.0312 37.2742 68.143C37.3092 68.2287 37.5905 68.4248 38.3596 68.4557C38.1265 68.0557 37.9461 67.6229 37.8241 67.1655ZM42.9199 69.8237C42.2629 69.8237 41.6441 69.6619 41.0962 69.381C42.0038 69.1667 42.9626 68.8659 43.9296 68.4709C44.9063 68.072 45.8731 67.5894 46.7313 67.0622C46.2033 68.6635 44.6956 69.8237 42.9199 69.8237ZM44.3882 40.0018C45.0483 40.3844 45.5988 40.9349 45.9814 41.595C46.2487 42.0561 46.8862 42.0561 47.1535 41.595C47.5361 40.9349 48.0867 40.3844 48.7467 40.0018C49.2079 39.7345 49.2079 39.097 48.7467 38.8297C48.0867 38.4471 47.5361 37.8965 47.1535 37.2365C46.8862 36.7753 46.2487 36.7753 45.9814 37.2365C45.5988 37.8965 45.0483 38.4471 44.3882 38.8297C43.9271 39.097 43.9271 39.7345 44.3882 40.0018ZM97.7797 63.5867C98.1623 64.2468 98.7129 64.7973 99.373 65.18C99.8341 65.4473 99.8341 66.0847 99.373 66.352C98.7129 66.7347 98.1623 67.2852 97.7797 67.9453C97.5124 68.4064 96.8749 68.4064 96.6076 67.9453C96.2251 67.2852 95.6745 66.7347 95.0144 66.352C94.5533 66.0847 94.5533 65.4473 95.0144 65.18C95.6745 64.7973 96.2251 64.2468 96.6076 63.5867C96.8749 63.1257 97.5124 63.1257 97.7797 63.5867ZM67.9664 72.658H77.3439C78.0714 72.658 78.6612 73.2477 78.6612 73.9753V79.5595C78.6612 80.287 78.0714 80.8768 77.3439 80.8768H67.9664C67.2389 80.8768 66.649 80.287 66.649 79.5595V73.9753C66.649 73.2477 67.2389 72.658 67.9664 72.658ZM77.3441 79.6127C77.3732 79.6127 77.397 79.5889 77.397 79.5598V73.9756C77.397 73.9464 77.3732 73.9227 77.3441 73.9227H67.9666C67.9374 73.9227 67.9137 73.9464 67.9137 73.9756V79.5598C67.9137 79.5889 67.9374 79.6127 67.9666 79.6127H77.3441ZM65.3125 59.483C65.1685 59.464 65.0245 59.4449 64.881 59.4219L64.4494 59.3526C62.301 57.2826 60.9588 54.3817 60.9588 51.1627C60.9588 47.8329 62.4014 44.8505 64.6811 42.7697C64.6973 42.7549 64.7126 42.7392 64.7279 42.7234C64.7445 42.7062 64.7611 42.6891 64.779 42.6732C65.2093 42.5897 65.6412 42.5168 66.0735 42.4477C66.5103 42.3778 66.9481 42.3188 67.3865 42.2637C67.4523 42.2554 67.5182 42.2474 67.584 42.2395C68.7298 42.1011 69.8791 42.0104 71.0306 41.9724C71.8423 41.9456 72.6541 41.9464 73.4658 41.9695C74.6761 42.0039 75.8845 42.0919 77.0885 42.237C77.2573 42.2574 77.4259 42.2801 77.5946 42.3027L77.6311 42.3077C77.7188 42.3195 77.8066 42.3309 77.8944 42.3424C78.128 42.3729 78.3616 42.4034 78.5946 42.4406C79.0325 42.5105 79.4687 42.594 79.9046 42.6787C79.9202 42.6926 79.9347 42.7076 79.9492 42.7226C79.9627 42.7365 79.9761 42.7504 79.9905 42.7635C82.2739 44.8445 83.7187 47.8298 83.7187 51.1627C83.7187 54.3775 82.3803 57.2752 80.2368 59.3447C80.2138 59.349 80.1911 59.3542 80.1685 59.3595C80.1419 59.3657 80.1153 59.3719 80.0881 59.3764C79.8555 59.4152 79.6223 59.4476 79.389 59.4799C79.285 59.4944 79.1809 59.5088 79.0769 59.5238C78.6322 59.5881 78.1873 59.6484 77.7414 59.6998C80.5687 57.9041 82.4543 54.7529 82.4543 51.1627C82.4543 49.6121 82.0933 48.1477 81.4671 46.833C75.9877 46.802 73.1368 45.7521 71.6667 44.7542C70.0763 46.4522 67.3224 48.1396 62.6472 48.2806C62.3747 49.1949 62.2232 50.161 62.2232 51.1627C62.2232 54.7546 64.1106 57.9071 66.9404 59.7024L66.941 59.7028L66.931 59.7014C66.4859 59.6499 66.0421 59.5863 65.5982 59.522C65.503 59.5083 65.4078 59.4957 65.3125 59.483Z" fill="#F1F3F2"></path>
	<g clip-path="url(#clip1)">
		<path d="M194.276 92.9383C194.276 88.2438 190.469 86.4048 187.714 86.4048C184.959 86.4048 181.242 88.5468 181.242 92.9383C181.242 96.1889 180.695 98.1389 180.22 99.2185C179.982 99.7585 180.373 100.36 180.963 100.36C181.173 100.36 181.375 100.441 181.526 100.587L182.494 101.514C182.813 101.819 183.317 101.815 183.63 101.504L184.179 100.96C184.508 100.633 185.044 100.648 185.355 100.992L185.698 101.372C186.029 101.737 186.606 101.727 186.924 101.35L187.137 101.098C187.462 100.712 188.056 100.712 188.381 101.098L188.594 101.35C188.912 101.727 189.489 101.737 189.82 101.372L190.163 100.992C190.474 100.648 191.01 100.633 191.339 100.96L191.888 101.504C192.201 101.815 192.705 101.819 193.024 101.514L193.992 100.587C194.143 100.441 194.345 100.36 194.555 100.36C195.145 100.36 195.535 99.7585 195.298 99.2185C194.823 98.1389 194.276 96.1889 194.276 92.9383ZM192.153 93.5039C192.153 96.058 190.075 98.1358 187.521 98.1358C184.967 98.1358 182.889 96.058 182.889 93.5039C182.889 93.1035 182.945 92.7169 183.041 92.346H186.347C186.673 92.346 186.983 92.209 187.202 91.9686L187.612 91.5194C188.058 91.0317 188.82 91.0143 189.287 91.4812L189.812 92.0068C190.029 92.224 190.324 92.346 190.631 92.346H192C192.096 92.7169 192.153 93.1035 192.153 93.5039Z" fill="#F1F3F2"></path>
		<path d="M187.521 48.3429C190.718 48.3429 193.31 45.7507 193.31 42.5531C193.31 39.3554 190.718 36.7632 187.521 36.7632C184.323 36.7632 181.731 39.3554 181.731 42.5531C181.731 45.7507 184.323 48.3429 187.521 48.3429ZM187.521 47.185C184.966 47.185 182.889 45.1071 182.889 42.5531C182.889 42.3566 182.905 42.1642 182.929 41.9741H187.21C187.52 41.9741 187.817 41.85 188.034 41.6296L188.514 41.1432C188.966 40.686 189.703 40.6836 190.157 41.1379L190.654 41.6349C190.872 41.8521 191.166 41.9741 191.473 41.9741H192.112C192.136 42.1642 192.152 42.3566 192.152 42.5531C192.152 45.1071 190.075 47.185 187.521 47.185Z" fill="#F1F3F2"></path>
		<path d="M192.153 68.6072C192.153 75.9618 198.115 81.9239 205.469 81.9239C212.824 81.9239 218.786 75.9618 218.786 68.6072C218.786 61.2526 212.824 55.2905 205.469 55.2905C198.115 55.2905 192.153 61.2526 192.153 68.6072ZM201.152 57.2547C201.605 57.7296 202.646 58.3663 204.979 58.3663C207.509 58.3663 208.862 57.6181 209.471 57.139C211.013 57.6787 212.41 58.5187 213.598 59.5915H210.335C210.058 59.5915 209.808 59.7546 209.695 60.0075C209.518 60.4064 209.023 60.5477 208.662 60.3026L208.399 60.1246C208.228 60.0086 208.015 59.974 207.816 60.0301L204.864 60.8625C204.671 60.9169 204.511 61.0512 204.423 61.2315L203.791 62.5385C203.727 62.6708 203.623 62.7797 203.493 62.8496L202.196 63.55C201.97 63.6723 201.829 63.9089 201.829 64.1663V64.1858C201.829 64.5726 202.142 64.8862 202.529 64.8862H204.669C204.947 64.8862 205.172 65.1115 205.172 65.3894C205.172 65.6673 205.398 65.8926 205.676 65.8926H206.226C206.504 65.8926 206.729 65.6673 206.729 65.3894V64.7987L208.699 65.8926L208.786 67.0304L208.173 66.4177H205.424C203.905 66.4177 202.446 67.0128 201.359 68.0755C201.016 68.4118 200.822 68.8723 200.822 69.3531C200.822 69.8271 201.01 70.2817 201.346 70.6169L201.458 70.7295C201.793 71.0646 202.248 71.253 202.722 71.253H203.665C204.16 71.253 204.561 71.6539 204.561 72.1485V72.5876L203.781 75.0447C203.603 75.6051 203.752 76.2179 204.168 76.6336V76.6336C204.463 76.9288 204.864 77.0946 205.281 77.0946C206.649 77.0946 207.882 76.2731 208.41 75.0113L208.749 74.2006C209.495 72.4137 209.88 70.4964 209.88 68.5598H210.296C210.598 68.5598 210.843 68.3149 210.843 68.0128V67.5773C210.843 67.2752 211.088 67.0304 211.39 67.0304C211.692 67.0304 211.937 66.7855 211.937 66.4834V65.0613L215.354 68.4784C215.951 69.0759 216.745 69.4284 217.584 69.481C217.235 74.3486 214.015 78.4226 209.607 80.0255C209.19 79.546 208.168 78.8481 205.723 78.8481C203.293 78.8481 201.951 79.538 201.309 80.0172C200.652 79.7767 200.021 79.4854 199.422 79.1402V78.1016C199.422 77.7571 199.332 77.4186 199.161 77.1195L197.757 74.6631C197.587 74.3639 197.497 74.0254 197.497 73.6809V72.6419C197.497 72.1039 197.278 71.5891 196.89 71.2159C196.521 70.8607 196.029 70.6622 195.517 70.6622H193.498C193.472 70.5124 193.449 70.3618 193.429 70.2102L194.58 69.1329C195.307 68.4527 195.784 67.5479 195.935 66.5638C196.147 65.1778 197.001 63.9736 198.239 63.3161L199.27 62.7688C199.821 62.476 200.166 61.9028 200.166 61.2787C200.166 60.3469 199.41 59.5915 198.479 59.5915H197.34C198.447 58.5924 199.735 57.7956 201.152 57.2547Z" fill="#F1F3F2"></path>
		<path d="M216.239 47.7151C216.022 48.0674 215.891 48.4781 215.891 48.9221C215.891 50.2012 216.928 51.238 218.207 51.238C219.288 51.238 220.188 50.4943 220.443 49.493C220.47 49.4943 220.496 49.5011 220.523 49.5011C221.451 49.5011 222.203 48.7705 222.251 47.8538C222.963 48.1666 223.748 48.3431 224.576 48.3431C224.78 48.3431 224.982 48.3319 225.181 48.3112C225.308 49.3074 226.15 50.0801 227.181 50.0801C227.34 50.0801 227.493 50.0573 227.642 50.0226C227.955 50.7375 228.667 51.238 229.497 51.238C230.616 51.238 231.523 50.3307 231.523 49.2116C231.523 49.0128 231.486 48.8246 231.433 48.643C231.569 48.4408 231.673 48.2125 231.73 47.9603C231.794 47.6792 231.795 47.3987 231.743 47.1328C231.703 46.9234 231.758 46.702 231.899 46.5423C232.188 46.2156 232.404 45.8164 232.507 45.3604C232.732 44.3627 232.372 43.372 231.657 42.7384C232.275 42.3225 232.681 41.617 232.681 40.8163C232.681 39.557 231.675 38.5377 230.423 38.5061C230.428 38.4501 230.442 38.3981 230.442 38.3404C230.441 37.5701 229.967 36.8457 229.265 36.5298C228.988 36.4053 228.705 36.3467 228.43 36.3448C227.89 36.3412 227.373 36.068 227.15 35.5759C226.866 34.95 226.305 34.46 225.582 34.2967C224.726 34.1034 223.878 34.4196 223.347 35.0439C223.004 35.4475 222.437 35.5302 221.929 35.3797C221.729 35.3203 221.514 35.2876 221.287 35.287C220.375 35.2847 219.534 35.8337 219.184 36.6752C219.056 36.9832 218.999 37.297 219.003 37.6015C219.011 38.2019 218.661 38.7411 218.101 38.9583C217.295 39.2713 216.654 39.9631 216.448 40.8722C216.246 41.7657 216.519 42.6486 217.092 43.2785C216.06 43.6252 215.312 44.5891 215.312 45.7376C215.312 46.5335 215.676 47.2371 216.239 47.7151ZM223.418 44.8692C223.418 43.9568 222.885 43.1753 222.119 42.7978C222.553 42.4821 222.839 41.9735 222.839 41.3952C222.839 40.8918 222.621 40.4422 222.279 40.1249C222.672 39.9799 222.995 39.6978 223.195 39.335C223.511 39.5375 223.884 39.6583 224.286 39.6583C225.071 39.6583 225.744 39.2076 226.08 38.5553C226.189 38.501 226.297 38.4455 226.396 38.3752C226.398 39.298 227.032 40.1308 227.97 40.3428C228.012 40.3524 228.054 40.3497 228.096 40.3565C228.066 40.5051 228.05 40.6588 228.05 40.8163C228.05 41.4067 228.277 41.9395 228.641 42.3485C228.801 42.5283 228.986 42.6811 229.195 42.8041C229.125 44.1077 228.516 45.2688 227.584 46.0678C227.566 46.0832 227.55 46.1005 227.532 46.1157C226.93 46.6156 226.2 46.963 225.399 47.1075C225.132 47.1558 224.857 47.1851 224.576 47.1851C223.834 47.1851 223.135 47.0055 222.512 46.6941C223.059 46.2705 223.418 45.6146 223.418 44.8692Z" fill="#F1F3F2"></path>
		<path d="M223.417 87.7139C220.22 87.7139 217.628 90.3061 217.628 93.5037C217.628 96.7014 220.22 99.2936 223.417 99.2936C226.615 99.2936 229.207 96.7014 229.207 93.5037C229.207 90.3061 226.615 87.7139 223.417 87.7139ZM223.417 98.1356C221.249 98.1356 219.428 96.6353 218.927 94.6195C222.532 94.5655 224.243 93.0496 225.052 91.5512C225.578 92.3395 226.488 93.0409 228.033 93.1886C228.04 93.2932 228.049 93.3974 228.049 93.5037C228.049 96.0578 225.972 98.1356 223.417 98.1356Z" fill="#F1F3F2"></path>
		<path d="M237.893 62.2387C237.893 60.6399 236.596 59.3438 234.998 59.3438C233.399 59.3438 232.103 60.6399 232.103 62.2387C232.103 62.438 232.123 62.6326 232.161 62.8206C232.142 62.8204 232.122 62.8177 232.103 62.8177C228.905 62.8177 226.313 65.4099 226.313 68.6075C226.313 71.8052 228.905 74.3974 232.103 74.3974C235.3 74.3974 237.893 71.8052 237.893 68.6075C237.893 67.1238 237.33 65.7747 236.412 64.7501C237.292 64.2534 237.893 63.321 237.893 62.2387ZM232.103 73.2394C229.676 73.2394 227.683 71.3629 227.49 68.9853C230.3 68.6822 231.558 66.94 232.11 65.5968C232.621 67.2226 233.83 69.2119 236.672 69.3314C236.323 71.542 234.41 73.2394 232.103 73.2394Z" fill="#F1F3F2"></path>
		<path d="M184.556 71.2635C184.652 71.8992 184.718 72.5748 184.718 73.2376C184.718 73.7515 185.135 74.1682 185.649 74.1682C186.163 74.1682 186.58 73.7515 186.58 73.2376C186.58 72.1941 186.441 71.138 186.267 70.2211C186.437 70.3012 186.614 70.3772 186.808 70.4432C186.907 70.4771 187.009 70.4933 187.108 70.4933C187.495 70.4933 187.857 70.2498 187.989 69.8629C188.155 69.3765 187.895 68.8477 187.409 68.6817C185.839 68.1461 185.602 66.8239 185.594 66.7792C185.588 66.7299 185.577 66.6815 185.562 66.6339C184.725 63.9205 181.926 62.8755 180.927 62.5829C180.477 61.8332 179.594 61.186 178.11 61.186C176.273 61.186 175.405 62.1436 174.707 62.913C174.101 63.5811 173.701 64.0223 172.703 64.0223C172.189 64.0223 171.772 64.4389 171.772 64.9529C171.772 65.4668 172.189 65.8834 172.703 65.8834C173.096 65.8834 173.438 65.8322 173.75 65.7548C173.338 66.0581 172.941 66.2196 172.703 66.2196C172.189 66.2196 171.772 66.6362 171.772 67.1501C171.772 67.664 172.189 68.0807 172.703 68.0807C172.995 68.0807 173.327 68.014 173.674 67.8898C173.671 67.9146 173.665 67.9387 173.663 67.9637C173.283 68.2259 172.924 68.3594 172.703 68.3594C172.189 68.3594 171.772 68.7761 171.772 69.2899C171.772 69.8039 172.189 70.2205 172.703 70.2205C173.019 70.2205 173.381 70.1423 173.759 69.9974C173.05 70.6305 172.21 71.0327 171.524 71.0327C171.01 71.0327 170.593 71.4493 170.593 71.9632C170.593 72.4771 171.01 72.8938 171.524 72.8938C172.447 72.8938 173.404 72.5398 174.261 71.9602C173.866 72.4721 173.38 72.8565 172.826 73.0618C172.344 73.2404 172.098 73.7758 172.277 74.2577C172.416 74.633 172.771 74.8652 173.149 74.8652C173.257 74.8652 173.366 74.8464 173.473 74.8069C174.364 74.4768 175.139 73.8799 175.747 73.0868C176.746 73.9055 178.023 74.3975 179.415 74.3975C181.654 74.3975 183.593 73.1238 184.556 71.2635ZM179.415 73.2395C178.245 73.2395 177.178 72.8 176.362 72.0819C175.995 71.7593 175.681 71.3805 175.43 70.958C175.296 70.7305 175.18 70.491 175.086 70.2407C174.983 69.9695 174.905 69.6869 174.855 69.3943C174.817 69.173 174.794 68.9469 174.788 68.7162C174.787 68.6798 174.783 68.6443 174.783 68.6076C174.783 68.4784 174.792 68.3513 174.802 68.2247C174.877 68.2208 174.95 68.2153 175.023 68.2092C175.448 68.1734 175.836 68.1035 176.183 68.001C176.49 67.9103 176.766 67.7941 177.018 67.6611C178.449 66.9059 179.033 65.5473 179.264 64.4384C179.335 65.4074 179.613 66.5032 180.47 66.9045C180.946 67.1278 181.319 67.5205 181.469 68.025C181.714 68.8465 182.327 69.9582 183.793 70.1071C183.168 71.9265 181.443 73.2395 179.415 73.2395Z" fill="#F1F3F2"></path>
		<path d="M212.811 44.2903H213.39C213.71 44.2903 213.969 44.0311 213.969 43.7113C213.969 43.3916 213.71 43.1323 213.39 43.1323H212.811C212.49 43.1323 212.232 43.3916 212.232 43.7113C212.232 44.0311 212.49 44.2903 212.811 44.2903Z" fill="#F1F3F2"></path>
		<path d="M195.441 44.2903H196.02C196.34 44.2903 196.599 44.0311 196.599 43.7113C196.599 43.3916 196.34 43.1323 196.02 43.1323H195.441C195.121 43.1323 194.862 43.3916 194.862 43.7113C194.862 44.0311 195.121 44.2903 195.441 44.2903Z" fill="#F1F3F2"></path>
		<path d="M201.231 44.2903H201.81C202.13 44.2903 202.389 44.0311 202.389 43.7113C202.389 43.3916 202.13 43.1323 201.81 43.1323H201.231C200.911 43.1323 200.652 43.3916 200.652 43.7113C200.652 44.0311 200.911 44.2903 201.231 44.2903Z" fill="#F1F3F2"></path>
		<path d="M204.126 44.2903H204.705C205.025 44.2903 205.284 44.0311 205.284 43.7113C205.284 43.3916 205.025 43.1323 204.705 43.1323H204.126C203.806 43.1323 203.547 43.3916 203.547 43.7113C203.547 44.0311 203.806 44.2903 204.126 44.2903Z" fill="#F1F3F2"></path>
		<path d="M207.021 44.2903H207.6C207.92 44.2903 208.179 44.0311 208.179 43.7113C208.179 43.3916 207.92 43.1323 207.6 43.1323H207.021C206.701 43.1323 206.442 43.3916 206.442 43.7113C206.442 44.0311 206.701 44.2903 207.021 44.2903Z" fill="#F1F3F2"></path>
		<path d="M209.916 44.2903H210.495C210.815 44.2903 211.074 44.0311 211.074 43.7113C211.074 43.3916 210.815 43.1323 210.495 43.1323H209.916C209.596 43.1323 209.337 43.3916 209.337 43.7113C209.337 44.0311 209.596 44.2903 209.916 44.2903Z" fill="#F1F3F2"></path>
		<path d="M198.336 44.2903H198.915C199.235 44.2903 199.494 44.0311 199.494 43.7113C199.494 43.3916 199.235 43.1323 198.915 43.1323H198.336C198.016 43.1323 197.757 43.3916 197.757 43.7113C197.757 44.0311 198.016 44.2903 198.336 44.2903Z" fill="#F1F3F2"></path>
		<path d="M208.364 91.7671H207.785C207.465 91.7671 207.206 92.0263 207.206 92.3461C207.206 92.6658 207.465 92.9251 207.785 92.9251H208.364C208.684 92.9251 208.943 92.6658 208.943 92.3461C208.943 92.0263 208.684 91.7671 208.364 91.7671Z" fill="#F1F3F2"></path>
		<path d="M205.469 91.7671H204.89C204.57 91.7671 204.311 92.0263 204.311 92.3461C204.311 92.6658 204.57 92.9251 204.89 92.9251H205.469C205.789 92.9251 206.048 92.6658 206.048 92.3461C206.048 92.0263 205.789 91.7671 205.469 91.7671Z" fill="#F1F3F2"></path>
		<path d="M202.574 91.7671H201.995C201.675 91.7671 201.416 92.0263 201.416 92.3461C201.416 92.6658 201.675 92.9251 201.995 92.9251H202.574C202.894 92.9251 203.153 92.6658 203.153 92.3461C203.153 92.0263 202.894 91.7671 202.574 91.7671Z" fill="#F1F3F2"></path>
		<path d="M211.259 91.7671H210.68C210.36 91.7671 210.101 92.0263 210.101 92.3461C210.101 92.6658 210.36 92.9251 210.68 92.9251H211.259C211.579 92.9251 211.838 92.6658 211.838 92.3461C211.838 92.0263 211.579 91.7671 211.259 91.7671Z" fill="#F1F3F2"></path>
		<path d="M196.784 91.7671H196.205C195.885 91.7671 195.626 92.0263 195.626 92.3461C195.626 92.6658 195.885 92.9251 196.205 92.9251H196.784C197.104 92.9251 197.363 92.6658 197.363 92.3461C197.363 92.0263 197.104 91.7671 196.784 91.7671Z" fill="#F1F3F2"></path>
		<path d="M199.679 91.7671H199.1C198.78 91.7671 198.521 92.0263 198.521 92.3461C198.521 92.6658 198.78 92.9251 199.1 92.9251H199.679C199.999 92.9251 200.258 92.6658 200.258 92.3461C200.258 92.0263 199.999 91.7671 199.679 91.7671Z" fill="#F1F3F2"></path>
		<path d="M214.154 91.7671H213.575C213.255 91.7671 212.996 92.0263 212.996 92.3461C212.996 92.6658 213.255 92.9251 213.575 92.9251H214.154C214.474 92.9251 214.733 92.6658 214.733 92.3461C214.733 92.0263 214.474 91.7671 214.154 91.7671Z" fill="#F1F3F2"></path>
		<path d="M190.994 66.8711H190.415C190.095 66.8711 189.836 67.1303 189.836 67.4501C189.836 67.7698 190.095 68.0291 190.415 68.0291H190.994C191.314 68.0291 191.573 67.7698 191.573 67.4501C191.573 67.1303 191.314 66.8711 190.994 66.8711Z" fill="#F1F3F2"></path>
		<path d="M187.521 68.0291H188.1C188.42 68.0291 188.679 67.7698 188.679 67.4501C188.679 67.1303 188.42 66.8711 188.1 66.8711H187.521C187.201 66.8711 186.942 67.1303 186.942 67.4501C186.942 67.7698 187.201 68.0291 187.521 68.0291Z" fill="#F1F3F2"></path>
		<path d="M220.523 66.8711C220.203 66.8711 219.944 67.1303 219.944 67.4501C219.944 67.7698 220.203 68.0291 220.523 68.0291H221.102C221.422 68.0291 221.681 67.7698 221.681 67.4501C221.681 67.1303 221.422 66.8711 221.102 66.8711H220.523Z" fill="#F1F3F2"></path>
		<path d="M224.576 67.4501C224.576 67.1303 224.317 66.8711 223.997 66.8711H223.418C223.098 66.8711 222.839 67.1303 222.839 67.4501C222.839 67.7698 223.098 68.0291 223.418 68.0291H223.997C224.317 68.0291 224.576 67.7698 224.576 67.4501Z" fill="#F1F3F2"></path>
		<path d="M183.43 82.107C183.531 82.3111 183.736 82.4292 183.949 82.4292C184.035 82.4292 184.123 82.41 184.205 82.3693C184.492 82.2274 184.61 81.8802 184.468 81.5936L184.211 81.0745C184.069 80.7878 183.723 80.6702 183.435 80.8122C183.149 80.9541 183.031 81.3012 183.173 81.5879L183.43 82.107Z" fill="#F1F3F2"></path>
		<path d="M182.147 79.5106C182.248 79.715 182.453 79.8335 182.667 79.8335C182.753 79.8335 182.84 79.8143 182.922 79.7738C183.209 79.6322 183.327 79.285 183.185 78.9984L182.929 78.4793C182.788 78.1929 182.442 78.0756 182.154 78.2161C181.867 78.3577 181.749 78.7049 181.891 78.9916L182.147 79.5106Z" fill="#F1F3F2"></path>
		<path d="M184.711 84.7015C184.811 84.9059 185.017 85.0244 185.23 85.0244C185.316 85.0244 185.403 85.0052 185.486 84.9647C185.773 84.8231 185.891 84.4759 185.749 84.1893L185.493 83.6702C185.352 83.3838 185.005 83.2665 184.718 83.407C184.431 83.5487 184.313 83.8958 184.455 84.1825L184.711 84.7015Z" fill="#F1F3F2"></path>
		<path d="M181.646 75.8831C181.504 75.5964 181.158 75.4788 180.87 75.6207C180.584 75.7627 180.466 76.1098 180.608 76.3965L180.865 76.9156C180.966 77.1197 181.171 77.2378 181.384 77.2378C181.47 77.2378 181.558 77.2186 181.641 77.1779C181.927 77.036 182.045 76.6888 181.903 76.4022L181.646 75.8831Z" fill="#F1F3F2"></path>
		<path d="M224.532 86.3448C224.615 86.3855 224.702 86.4048 224.788 86.4048C225.002 86.4048 225.207 86.2863 225.308 86.0819L225.46 85.7738C225.602 85.4871 225.483 85.1399 225.197 84.9986C224.911 84.8566 224.563 84.9748 224.422 85.2615L224.269 85.5696C224.128 85.8563 224.246 86.2035 224.532 86.3448Z" fill="#F1F3F2"></path>
		<path d="M229.044 77.212C228.757 77.07 228.411 77.1882 228.269 77.4743L228.012 77.9934C227.87 78.28 227.988 78.6272 228.274 78.7691C228.357 78.8098 228.444 78.8291 228.53 78.8291C228.744 78.8291 228.949 78.7109 229.05 78.5068L229.307 77.9877C229.449 77.701 229.331 77.3539 229.044 77.212Z" fill="#F1F3F2"></path>
		<path d="M226.993 81.3652C227.075 81.4056 227.163 81.4248 227.248 81.4248C227.462 81.4248 227.667 81.3064 227.768 81.102L228.024 80.5829C228.166 80.2963 228.048 79.9491 227.761 79.8075C227.475 79.667 227.127 79.784 226.986 80.0707L226.73 80.5897C226.588 80.8764 226.706 81.2235 226.993 81.3652Z" fill="#F1F3F2"></path>
		<path d="M230.326 74.6159C230.038 74.4757 229.692 74.5925 229.55 74.8791L229.294 75.3982C229.152 75.6848 229.271 76.032 229.557 76.1736C229.64 76.2141 229.727 76.2333 229.813 76.2333C230.026 76.2333 230.232 76.1148 230.332 75.9104L230.588 75.3914C230.73 75.1047 230.612 74.7576 230.326 74.6159Z" fill="#F1F3F2"></path>
		<path d="M226.48 82.4029C226.192 82.261 225.846 82.3789 225.704 82.6653L225.448 83.1843C225.306 83.471 225.423 83.8182 225.71 83.9601C225.793 84.0008 225.88 84.02 225.966 84.02C226.179 84.02 226.385 83.9018 226.486 83.6977L226.742 83.1787C226.884 82.892 226.767 82.5448 226.48 82.4029Z" fill="#F1F3F2"></path>
		<path d="M227.511 56.7709C227.612 56.9753 227.817 57.0937 228.031 57.0937C228.117 57.0937 228.204 57.0745 228.286 57.0341C228.573 56.8924 228.691 56.5453 228.549 56.2586L228.293 55.7395C228.152 55.4526 227.805 55.335 227.518 55.4763C227.231 55.618 227.113 55.9651 227.255 56.2518L227.511 56.7709Z" fill="#F1F3F2"></path>
		<path d="M226.748 54.4982C226.834 54.4982 226.922 54.479 227.004 54.4383C227.291 54.2964 227.409 53.9492 227.267 53.6625L227.01 53.1435C226.868 52.8568 226.522 52.7389 226.234 52.8811C225.948 53.023 225.83 53.3702 225.972 53.6569L226.229 54.1759C226.33 54.38 226.535 54.4982 226.748 54.4982Z" fill="#F1F3F2"></path>
		<path d="M225.466 51.9023C225.552 51.9023 225.639 51.8831 225.722 51.8427C226.009 51.701 226.127 51.3539 225.985 51.0672L225.729 50.5481C225.587 50.2612 225.241 50.1436 224.954 50.2849C224.667 50.4266 224.549 50.7737 224.691 51.0604L224.947 51.5795C225.047 51.7839 225.253 51.9023 225.466 51.9023Z" fill="#F1F3F2"></path>
		<path d="M228.794 59.367C228.895 59.5714 229.099 59.6896 229.313 59.6896C229.399 59.6896 229.487 59.6703 229.569 59.6296C229.856 59.488 229.974 59.1405 229.832 58.8542L229.575 58.3348C229.433 58.0484 229.087 57.9305 228.799 58.0722C228.513 58.2138 228.395 58.5613 228.537 58.8476L228.794 59.367Z" fill="#F1F3F2"></path>
		<path d="M230.047 61.906C230.148 62.1104 230.353 62.2288 230.567 62.2288C230.653 62.2288 230.74 62.2096 230.822 62.1689C231.109 62.0275 231.227 61.6804 231.085 61.3937L230.857 60.9309C230.715 60.6443 230.368 60.5261 230.082 60.668C229.795 60.8094 229.677 61.1565 229.819 61.4432L230.047 61.906Z" fill="#F1F3F2"></path>
		<path d="M214.795 80.0675C214.62 79.8006 214.262 79.7271 213.993 79.9021C213.727 80.078 213.652 80.437 213.828 80.7042L214.147 81.1879C214.257 81.3569 214.442 81.4485 214.631 81.4485C214.74 81.4485 214.85 81.4177 214.948 81.3533C215.215 81.1774 215.289 80.8184 215.113 80.5512L214.795 80.0675Z" fill="#F1F3F2"></path>
		<path d="M216.386 82.4865C216.211 82.2199 215.852 82.1458 215.584 82.3211C215.317 82.497 215.243 82.856 215.419 83.1232L215.738 83.6069C215.848 83.7759 216.033 83.8675 216.222 83.8675C216.331 83.8675 216.441 83.8367 216.539 83.7722C216.806 83.5964 216.88 83.2374 216.704 82.9702L216.386 82.4865Z" fill="#F1F3F2"></path>
		<path d="M218.765 87.1587C218.499 87.3346 218.425 87.6936 218.6 87.9608L218.747 88.1841C218.858 88.3532 219.043 88.4447 219.231 88.4447C219.34 88.4447 219.451 88.4139 219.549 88.3495C219.816 88.1736 219.89 87.8146 219.714 87.5474L219.567 87.3241C219.393 87.0572 219.033 86.9831 218.765 87.1587Z" fill="#F1F3F2"></path>
		<path d="M218.129 86.1908C218.397 86.0152 218.471 85.6562 218.295 85.389L217.978 84.9053C217.802 84.6382 217.443 84.5646 217.176 84.7391C216.908 84.9146 216.834 85.2737 217.01 85.5408L217.327 86.0246C217.439 86.1939 217.624 86.2858 217.812 86.2858C217.921 86.2858 218.031 86.255 218.129 86.1908Z" fill="#F1F3F2"></path>
		<path d="M195.734 82.3211C195.466 82.1458 195.108 82.2199 194.933 82.4865L194.614 82.9702C194.438 83.2374 194.513 83.5964 194.779 83.7722C194.878 83.8367 194.988 83.8675 195.097 83.8675C195.285 83.8675 195.47 83.7759 195.581 83.6069L195.9 83.1232C196.075 82.856 196.001 82.497 195.734 82.3211Z" fill="#F1F3F2"></path>
		<path d="M193.342 84.9052L193.023 85.3889C192.848 85.656 192.922 86.0151 193.189 86.1909C193.287 86.2554 193.397 86.2862 193.506 86.2862C193.695 86.2862 193.879 86.1946 193.99 86.0255L194.309 85.5418C194.484 85.2747 194.41 84.9156 194.144 84.7398C193.876 84.5642 193.517 84.6383 193.342 84.9052Z" fill="#F1F3F2"></path>
		<path d="M197.325 79.9021C197.057 79.7271 196.698 79.8006 196.523 80.0675L196.205 80.5512C196.029 80.8184 196.103 81.1774 196.37 81.3533C196.468 81.4177 196.578 81.4485 196.687 81.4485C196.876 81.4485 197.061 81.3569 197.171 81.1879L197.49 80.7042C197.666 80.437 197.592 80.078 197.325 79.9021Z" fill="#F1F3F2"></path>
		<path d="M192.956 51.7025L193.316 52.1566C193.43 52.3007 193.6 52.3759 193.771 52.3759C193.896 52.3759 194.023 52.3349 194.13 52.2507C194.38 52.0522 194.422 51.6881 194.224 51.4373L193.864 50.9833C193.666 50.7328 193.301 50.6899 193.051 50.8892C192.8 51.0876 192.758 51.4518 192.956 51.7025Z" fill="#F1F3F2"></path>
		<path d="M195.113 54.4261C195.227 54.5709 195.396 54.6461 195.567 54.6461C195.693 54.6461 195.819 54.6054 195.926 54.5211C196.177 54.3229 196.219 53.9588 196.021 53.708L195.662 53.254C195.464 53.0038 195.1 52.9603 194.849 53.159C194.598 53.3572 194.555 53.7213 194.754 53.9721L195.113 54.4261Z" fill="#F1F3F2"></path>
		<path d="M192.332 49.9814C192.583 49.7832 192.626 49.4191 192.427 49.1683L192.068 48.7143C191.87 48.4635 191.507 48.4203 191.255 48.6193C191.004 48.8175 190.962 49.1816 191.16 49.4324L191.519 49.8864C191.633 50.0311 191.802 50.1063 191.974 50.1063C192.099 50.1063 192.226 50.0656 192.332 49.9814Z" fill="#F1F3F2"></path>
		<path d="M196.55 56.243L196.909 56.697C197.024 56.8412 197.193 56.9164 197.364 56.9164C197.489 56.9164 197.617 56.8754 197.723 56.7911C197.973 56.5927 198.016 56.2285 197.817 55.9778L197.458 55.5238C197.26 55.2736 196.895 55.2303 196.644 55.4296C196.394 55.6281 196.351 55.9922 196.55 56.243Z" fill="#F1F3F2"></path>
		<path d="M216.489 51.522L216.474 51.5466C216.301 51.8154 216.386 52.1612 216.655 52.3345C216.748 52.3947 216.854 52.423 216.959 52.423C217.156 52.423 217.351 52.3237 217.463 52.1485C217.636 51.8796 217.559 51.5214 217.29 51.3484C217.021 51.1748 216.663 51.2526 216.489 51.522Z" fill="#F1F3F2"></path>
		<path d="M215.052 54.7626C215.15 54.8271 215.26 54.8579 215.369 54.8579C215.558 54.8579 215.743 54.7663 215.853 54.5972L216.172 54.1135C216.348 53.8464 216.273 53.4873 216.007 53.3115C215.739 53.1359 215.38 53.2103 215.205 53.4769L214.886 53.9606C214.711 54.2277 214.785 54.5868 215.052 54.7626Z" fill="#F1F3F2"></path>
		<path d="M213.614 55.8951L213.296 56.3788C213.12 56.646 213.194 57.005 213.461 57.1809C213.559 57.2453 213.669 57.2762 213.778 57.2762C213.967 57.2762 214.152 57.1846 214.262 57.0155L214.581 56.5318C214.757 56.2646 214.683 55.9056 214.416 55.7298C214.148 55.5548 213.789 55.6283 213.614 55.8951Z" fill="#F1F3F2"></path>
		<path d="M184.151 56.8577C184.234 56.8981 184.321 56.9173 184.407 56.9173C184.62 56.9173 184.826 56.7989 184.926 56.5945L185.182 56.0751C185.324 55.7882 185.206 55.4413 184.92 55.2997C184.632 55.1589 184.286 55.2768 184.144 55.5629L183.888 56.0822C183.746 56.3692 183.864 56.716 184.151 56.8577Z" fill="#F1F3F2"></path>
		<path d="M181.587 62.0485C181.669 62.0889 181.756 62.1081 181.842 62.1081C182.056 62.1081 182.261 61.9897 182.362 61.7853L182.618 61.2662C182.76 60.9796 182.642 60.6324 182.355 60.4908C182.068 60.3508 181.721 60.4676 181.58 60.754L181.324 61.273C181.182 61.5597 181.3 61.9068 181.587 62.0485Z" fill="#F1F3F2"></path>
		<path d="M185.433 54.2614C185.515 54.3021 185.603 54.3213 185.689 54.3213C185.902 54.3213 186.107 54.2031 186.208 53.999L186.465 53.4799C186.607 53.1933 186.489 52.8461 186.203 52.7042C185.915 52.5623 185.569 52.6802 185.427 52.9665L185.17 53.4856C185.028 53.7723 185.146 54.1194 185.433 54.2614Z" fill="#F1F3F2"></path>
		<path d="M183.638 57.8952C183.351 57.7542 183.005 57.8712 182.863 58.1579L182.606 58.6772C182.464 58.9636 182.582 59.311 182.868 59.4527C182.951 59.4934 183.038 59.5126 183.124 59.5126C183.338 59.5126 183.543 59.3944 183.644 59.19L183.901 58.6707C184.043 58.3843 183.925 58.0369 183.638 57.8952Z" fill="#F1F3F2"></path>
		<path d="M186.715 51.6664C186.798 51.7068 186.885 51.726 186.971 51.726C187.185 51.726 187.39 51.6076 187.491 51.4032L187.747 50.8841C187.889 50.5974 187.77 50.2503 187.484 50.1086C187.196 49.9681 186.849 50.0857 186.709 50.3718L186.453 50.8909C186.311 51.1776 186.429 51.5247 186.715 51.6664Z" fill="#F1F3F2"></path>
	</g>
	<g clip-path="url(#clip2)">
		<path d="M333.71 60.6068C335.922 60.59 337.947 60.3605 339.776 59.9134C337.196 58.2009 335.834 55.1251 335.115 52.3293C334.966 51.7483 334.23 48.8681 334.23 46.1501C334.23 41.0413 338.387 36.885 343.495 36.885C348.604 36.885 352.76 41.0413 352.76 46.1501C352.76 46.3018 352.745 46.4496 352.738 46.5996C352.741 46.6276 352.752 46.6529 352.751 46.6819C352.749 46.7435 352.628 49.2597 351.23 52.2199C350.925 52.8649 350.558 53.531 350.12 54.1974C348.493 56.6723 345.856 59.1442 341.611 60.5619C341.574 60.5867 341.532 60.6036 341.489 60.6189C341.443 60.6357 341.395 60.6449 341.345 60.6494C339.322 61.2936 336.937 61.6956 334.134 61.7529C335.109 64.0677 336.526 65.6613 338.381 66.5013C342.955 68.5724 348.722 65.4877 348.78 65.4563C353.354 62.5298 356.761 62.07 359.194 62.5473C360.222 62.7489 361.079 63.1144 361.772 63.5373C362.109 63.742 362.379 63.5616 362.454 63.5019C362.528 63.4431 362.758 63.2237 362.637 62.8604C361.718 60.109 360.552 58.2788 359.736 57.2281C358.138 55.1722 356.986 52.9747 356.312 50.6966C355.279 47.203 354.362 43.1448 354.353 43.104C352.302 35.0455 345.799 34.2402 343.498 34.2402C337.764 34.2402 332.459 37.9899 331.986 45.6963C331.39 55.4264 333.535 60.0725 333.71 60.6068Z" fill="#F1F3F2"></path>
		<path d="M336.567 53.1347C336.688 53.5153 336.822 53.8961 336.971 54.2726C337.834 56.4529 339.196 58.4806 341.335 59.4569C343.721 58.6591 345.731 57.4494 347.35 55.8281C347.707 55.4708 348.044 55.0923 348.363 54.6953C348.643 54.3462 348.915 53.9874 349.166 53.6076C349.226 53.5159 349.28 53.4243 349.337 53.3326C347.742 54.6328 345.709 55.4152 343.495 55.4152C340.537 55.4152 337.904 54.0164 336.207 51.8511C336.312 52.2744 336.43 52.7039 336.567 53.1347Z" fill="#F1F3F2"></path>
		<path d="M337.831 43.2294H349.471C350.413 43.2294 350.979 42.1514 350.416 41.3968C348.868 39.325 346.414 37.9863 343.651 37.9863C340.888 37.9863 338.434 39.325 336.887 41.3968C336.323 42.1514 336.889 43.2294 337.831 43.2294Z" fill="#F1F3F2"></path>
		<path d="M369.553 90.7381H363.08C364.962 89.6211 366.145 87.4728 365.886 85.1203L364.325 70.9337C364.065 68.5645 363.093 66.4353 361.648 64.7291C361.484 64.6855 361.322 64.6189 361.169 64.5258C358.228 62.7306 354.146 63.3971 349.369 66.4527C349.153 66.5714 345.769 68.3802 341.961 68.3805C340.621 68.3805 339.229 68.1565 337.903 67.5563C335.418 66.431 333.63 64.1855 332.57 60.8755C331.251 61.2743 330.094 62.1283 329.34 63.3267L312.1 90.7381H308.172C307.852 90.7381 307.593 90.9973 307.593 91.3171C307.593 91.6369 307.852 91.8962 308.172 91.8962H328.347L324.014 99.1085C323.688 99.6525 323.679 100.307 323.992 100.859C324.304 101.411 324.869 101.74 325.503 101.74H355.553C356.188 101.74 356.753 101.411 357.065 100.859C357.378 100.306 357.369 99.6522 357.043 99.1085L352.71 91.8962H369.553C369.873 91.8962 370.132 91.6369 370.132 91.3171C370.132 90.9973 369.873 90.7381 369.553 90.7381ZM336.364 90.159C336.364 88.3791 337.342 86.8011 338.813 85.9651C339.019 85.848 339.234 85.7466 339.459 85.6602C339.661 85.5821 339.869 85.5154 340.084 85.4648C340.25 85.4259 340.418 85.3931 340.59 85.3715L343.607 84.9941L344.211 84.9185L344.814 84.8431L345.233 84.7908V90.7381H343.714H343.125H342.536H339.1H338.511H337.922H336.943C336.623 90.7381 336.364 90.4782 336.364 90.159ZM355.305 83.0163C355.785 82.9835 356.218 82.7621 356.524 82.3922C356.831 82.0221 356.969 81.5556 356.913 81.0783L356.045 73.7625C356.008 73.445 356.235 73.1569 356.552 73.1193C356.87 73.0822 357.158 73.309 357.196 73.6262L358.063 80.9423C358.157 81.7377 357.927 82.5152 357.415 83.1316C356.904 83.748 356.183 84.1173 355.384 84.1716L346.391 84.7836V84.1348C346.391 83.9688 346.319 83.8105 346.195 83.7008C346.165 83.6743 346.127 83.6627 346.092 83.6432L355.305 83.0163ZM340.449 77.1973C340.7 75.8503 341.876 74.8726 343.245 74.8726C343.42 74.8726 343.597 74.8889 343.769 74.9212C345.312 75.2091 346.334 76.6987 346.046 78.2417L345.037 83.6482L344.434 83.7236L343.83 83.7991L344.907 78.0293C345.078 77.1125 344.474 76.2307 343.557 76.0597C343.452 76.0401 343.348 76.0307 343.245 76.0307C342.448 76.0307 341.739 76.5977 341.587 77.4098L340.312 84.2456C340.103 84.2765 339.9 84.319 339.699 84.3705C339.485 84.4256 339.277 84.492 339.073 84.5691L340.449 77.1973ZM322.252 90.7381L329.638 80.1018C329.751 76.1624 331.571 73.4928 331.661 73.363C331.843 73.1009 332.204 73.0367 332.466 73.2194C332.728 73.4017 332.793 73.7625 332.611 74.0252C332.595 74.0481 331.518 75.6351 331.027 78.1051C331 78.2417 330.982 78.3895 330.958 78.5314C330.814 79.6115 330.627 82.5253 332.376 84.6005C334.252 86.828 334.128 89.4469 333.912 90.7381H329.37H322.252ZM356.05 99.7051C356.207 99.9663 356.108 100.2 356.058 100.288C356.007 100.377 355.858 100.582 355.553 100.582H325.503C325.198 100.582 325.05 100.377 324.999 100.288C324.949 100.2 324.85 99.9663 325.007 99.7051L329.698 91.8962H336.943H337.706H338.295H338.884L338.535 93.7684L339.713 96.6588L341.855 94.3878L342.32 91.8962H342.909H343.498H345.812H351.359L356.05 99.7051Z" fill="#F1F3F2"></path>
	</g>
	<g clip-path="url(#clip3)">
		<path d="M229.591 202.462C227.325 200.704 224.496 199.735 221.627 199.735H208.85C205.529 199.735 202.367 200.988 199.948 203.264L191.96 210.777C191.713 211.008 191.335 211.015 191.081 210.793L185.489 205.913L185.204 204.848C184.358 201.69 184.479 198.35 185.552 195.262C185.622 195.061 185.658 194.849 185.658 194.636C185.658 193.584 184.805 192.73 183.752 192.73H176.296C175.243 192.73 174.39 193.584 174.39 194.636C174.39 194.849 174.426 195.061 174.496 195.262C175.569 198.35 175.69 201.69 174.844 204.848L171.144 218.66C171.049 219.017 171 219.386 171 219.756V219.756C171 221.763 172.407 223.494 174.371 223.905C176.235 224.295 178.13 224.489 180.024 224.489C181.918 224.489 183.813 224.295 185.677 223.905C186.855 223.659 187.825 222.932 188.419 221.96C189.358 222.467 190.414 222.747 191.519 222.747C192.942 222.747 194.349 222.273 195.481 221.411L200.498 217.595C200.593 218.745 200.833 219.86 201.214 220.923C202.037 223.219 202.385 225.51 202.249 227.734L201.824 234.863C201.794 235.347 201.967 235.829 202.3 236.183C202.633 236.537 203.103 236.74 203.589 236.74H233.547C234.508 236.74 235.301 235.958 235.315 234.996L235.593 214.935C235.661 210.093 233.417 205.43 229.591 202.462ZM220.348 206.564L221.123 208.24L215.773 209.879V208.907C215.978 208.811 216.162 208.661 216.295 208.446L220.956 200.909H221.064C221.079 200.929 221.086 200.953 221.104 200.972L223.863 203.859L220.58 205.813C220.322 205.967 220.222 206.291 220.348 206.564ZM209.419 205.813L206.212 203.904L209.615 201.033L214.199 208.446C214.305 208.617 214.445 208.744 214.6 208.84V209.994L208.876 208.24L209.652 206.564C209.778 206.291 209.677 205.967 209.419 205.813ZM176.296 193.904H183.752C184.156 193.904 184.484 194.232 184.484 194.636C184.484 194.718 184.471 194.799 184.444 194.877C183.356 198.007 183.19 201.339 183.934 204.556C183.98 204.755 184.017 204.954 184.07 205.152L184.448 206.563L184.672 207.4H180.567C180.243 207.4 179.98 207.662 179.98 207.987C179.98 208.311 180.243 208.573 180.567 208.573H184.987L185.322 209.826H179.747H178.26H174.726L175.978 205.152C176.888 201.753 176.759 198.2 175.604 194.877C175.577 194.799 175.564 194.718 175.564 194.636C175.564 194.232 175.892 193.904 176.296 193.904ZM182.038 212.768C182.125 212.717 182.22 212.681 182.327 212.681H185.261C185.585 212.681 185.848 212.943 185.848 213.268C185.848 213.592 185.585 213.854 185.261 213.854H182.884H182.327C182.003 213.854 181.74 213.592 181.74 213.268C181.74 213.051 181.863 212.869 182.038 212.768ZM183.501 217.375H184.138H185.626H186.434C186.758 217.375 187.021 217.638 187.021 217.962C187.021 218.254 186.804 218.485 186.525 218.53C186.494 218.535 186.467 218.549 186.434 218.549H185.052H183.501C183.177 218.549 182.914 218.286 182.914 217.962C182.914 217.638 183.177 217.375 183.501 217.375ZM203.155 235.379C203.042 235.258 202.985 235.101 202.995 234.934L203.42 227.805C203.566 225.422 203.196 222.974 202.319 220.527C202.229 220.277 202.156 220.021 202.083 219.765C201.251 214.317 201.967 211.467 201.981 211.413C202.065 211.101 201.879 210.779 201.567 210.694C201.253 210.609 200.932 210.796 200.847 211.108C200.823 211.2 200.39 212.871 200.534 216.093L194.771 220.477C193.841 221.184 192.687 221.574 191.519 221.574C190.575 221.574 189.675 221.324 188.882 220.876C188.981 220.516 189.048 220.144 189.048 219.756V219.756C189.048 219.386 189 219.017 188.904 218.66L186.034 207.947L190.31 211.678C191.02 212.298 192.076 212.278 192.763 211.632L200.752 204.119C202.718 202.269 205.223 201.169 207.889 200.954L204.825 203.538C204.68 203.66 204.603 203.845 204.619 204.035C204.634 204.224 204.74 204.393 204.903 204.491L208.364 206.551L207.528 208.357C207.457 208.511 207.456 208.688 207.525 208.843C207.594 208.998 207.727 209.115 207.889 209.165L214.5 211.19C214.531 211.219 214.564 211.243 214.6 211.264V235.566H203.589C203.423 235.566 203.269 235.5 203.155 235.379ZM234.142 234.979C234.137 235.303 233.87 235.566 233.547 235.566H228.878L228.538 229.001C228.398 226.311 228.718 223.506 229.489 220.665C230.152 218.216 230.426 215.046 230.304 211.242C230.293 210.918 230.021 210.641 229.698 210.675C229.374 210.685 229.12 210.956 229.131 211.28C229.25 214.968 228.989 218.022 228.356 220.358C227.553 223.319 227.22 226.247 227.366 229.062L227.703 235.566H215.773V211.107L222.11 209.165C222.273 209.115 222.405 208.998 222.474 208.843C222.543 208.688 222.542 208.511 222.471 208.357L221.635 206.551L225.096 204.491C225.25 204.399 225.353 204.243 225.377 204.065C225.402 203.888 225.344 203.71 225.22 203.581L222.719 200.964C224.947 201.174 227.099 202.013 228.872 203.389C232.409 206.132 234.483 210.442 234.42 214.919L234.142 234.979Z" fill="#F1F3F2"></path>
		<path d="M219.294 215.028C219.942 215.028 220.467 214.503 220.467 213.855C220.467 213.207 219.942 212.681 219.294 212.681C218.645 212.681 218.12 213.207 218.12 213.855C218.12 214.503 218.645 215.028 219.294 215.028Z" fill="#F1F3F2"></path>
		<path d="M219.294 220.895C219.942 220.895 220.467 220.37 220.467 219.722C220.467 219.074 219.942 218.548 219.294 218.548C218.645 218.548 218.12 219.074 218.12 219.722C218.12 220.37 218.645 220.895 219.294 220.895Z" fill="#F1F3F2"></path>
		<path d="M219.294 226.764C219.942 226.764 220.467 226.238 220.467 225.59C220.467 224.942 219.942 224.417 219.294 224.417C218.645 224.417 218.12 224.942 218.12 225.59C218.12 226.238 218.645 226.764 219.294 226.764Z" fill="#F1F3F2"></path>
		<path d="M219.294 232.632C219.942 232.632 220.467 232.106 220.467 231.458C220.467 230.81 219.942 230.285 219.294 230.285C218.645 230.285 218.12 230.81 218.12 231.458C218.12 232.106 218.645 232.632 219.294 232.632Z" fill="#F1F3F2"></path>
		<path d="M185.261 187.45C186.555 187.45 187.608 186.397 187.608 185.103C187.608 183.809 186.555 182.756 185.261 182.756C183.967 182.756 182.914 183.809 182.914 185.103C182.914 186.397 183.967 187.45 185.261 187.45ZM185.261 183.929C185.908 183.929 186.435 184.456 186.435 185.103C186.435 185.75 185.908 186.277 185.261 186.277C184.614 186.277 184.088 185.75 184.088 185.103C184.088 184.456 184.614 183.929 185.261 183.929Z" fill="#F1F3F2"></path>
		<path d="M179.393 181.582C180.687 181.582 181.74 180.529 181.74 179.235C181.74 177.94 180.687 176.888 179.393 176.888C178.099 176.888 177.046 177.94 177.046 179.235C177.046 180.529 178.099 181.582 179.393 181.582ZM179.393 178.061C180.04 178.061 180.567 178.588 180.567 179.235C180.567 179.882 180.04 180.408 179.393 180.408C178.746 180.408 178.219 179.882 178.219 179.235C178.219 178.588 178.746 178.061 179.393 178.061Z" fill="#F1F3F2"></path>
		<path d="M177.046 189.797C178.34 189.797 179.393 188.744 179.393 187.45C179.393 186.155 178.34 185.103 177.046 185.103C175.751 185.103 174.699 186.155 174.699 187.45C174.699 188.744 175.751 189.797 177.046 189.797ZM177.046 186.276C177.693 186.276 178.219 186.803 178.219 187.45C178.219 188.097 177.693 188.623 177.046 188.623C176.398 188.623 175.872 188.097 175.872 187.45C175.872 186.803 176.398 186.276 177.046 186.276Z" fill="#F1F3F2"></path>
		<path d="M210.492 213.854H205.798C205.474 213.854 205.211 214.117 205.211 214.441C205.211 214.766 205.474 215.028 205.798 215.028H210.492C210.816 215.028 211.079 214.766 211.079 214.441C211.079 214.117 210.816 213.854 210.492 213.854Z" fill="#F1F3F2"></path>
		<path d="M204.186 198.17C206.162 198.17 207.968 197.447 209.362 196.257C211.032 197.364 213.033 198.012 215.186 198.012C217.374 198.012 219.406 197.347 221.091 196.208C222.493 197.427 224.319 198.17 226.322 198.17C230.73 198.17 234.304 194.596 234.304 190.188C234.304 187.408 232.88 184.962 230.725 183.533C231.141 182.566 231.373 181.501 231.373 180.382C231.373 175.974 227.8 172.4 223.392 172.4C223.03 172.4 222.677 172.433 222.328 172.479C220.873 170.517 218.548 169.24 215.919 169.24C213.258 169.24 210.908 170.547 209.457 172.549C208.965 172.454 208.457 172.4 207.937 172.4C203.529 172.4 199.955 175.974 199.955 180.382C199.955 181.351 200.137 182.276 200.453 183.135C197.927 184.475 196.204 187.129 196.204 190.188C196.204 194.596 199.777 198.17 204.186 198.17ZM215.186 196.838C213.362 196.838 211.663 196.307 210.22 195.402C208.726 194.466 207.517 193.124 206.743 191.528C206.837 191.543 206.932 191.557 207.03 191.557H212.042H212.716C213.207 191.557 213.683 191.355 214.023 191.003L215.018 189.974C215.141 189.848 215.306 189.778 215.482 189.778C215.482 189.778 215.483 189.778 215.483 189.778C215.66 189.778 215.824 189.848 215.947 189.975L216.935 191.001C217.276 191.354 217.753 191.557 218.244 191.557H218.466H223.615C222.856 193.109 221.685 194.421 220.239 195.349C218.779 196.287 217.047 196.838 215.186 196.838ZM224.574 184.111V187.45V188.266V189.738C224.574 190.029 224.377 190.266 224.112 190.346C224.053 190.364 223.994 190.383 223.929 190.383H218.35H218.244C218.07 190.383 217.9 190.311 217.78 190.186L216.792 189.161C216.446 188.803 215.982 188.605 215.484 188.604C215.483 188.604 215.483 188.604 215.482 188.604C214.985 188.604 214.521 188.801 214.175 189.158L213.18 190.187C213.059 190.312 212.89 190.383 212.716 190.383H212.157H207.03C206.674 190.383 206.384 190.094 206.384 189.738V188.21V184.214V183.987C206.384 183.75 206.519 183.552 206.71 183.44C206.806 183.383 206.911 183.342 207.03 183.342H208.274H210.799H215.345H215.984H221.038H222.234H223.615H223.929C224.089 183.342 224.231 183.407 224.344 183.503C224.482 183.622 224.574 183.792 224.574 183.987V184.111Z" fill="#F1F3F2"></path>
		<path d="M210.556 185.394C210.535 185.411 210.509 185.419 210.489 185.439L208.431 187.497C208.202 187.726 208.202 188.098 208.431 188.327C208.436 188.332 208.442 188.333 208.447 188.338C208.56 188.443 208.702 188.499 208.846 188.499C208.996 188.499 209.146 188.442 209.261 188.327L209.358 188.23L211.204 186.384L211.319 186.269C211.548 186.039 211.548 185.668 211.319 185.439C211.11 185.23 210.786 185.221 210.556 185.394Z" fill="#F1F3F2"></path>
		<path d="M214.641 184.927C214.612 184.898 214.576 184.884 214.543 184.862C214.32 184.716 214.028 184.729 213.827 184.917C213.823 184.921 213.816 184.923 213.812 184.927L211.753 186.986C211.674 187.065 211.632 187.163 211.608 187.265C211.591 187.333 211.586 187.401 211.595 187.471C211.61 187.596 211.657 187.719 211.753 187.816C211.773 187.835 211.799 187.844 211.821 187.86C211.925 187.939 212.044 187.987 212.168 187.987C212.318 187.987 212.468 187.93 212.583 187.816L214.641 185.757C214.817 185.582 214.855 185.325 214.763 185.11C214.734 185.044 214.695 184.981 214.641 184.927Z" fill="#F1F3F2"></path>
		<path d="M177.633 196.838H182.914C183.238 196.838 183.5 196.576 183.5 196.251C183.5 195.927 183.238 195.665 182.914 195.665H177.633C177.309 195.665 177.046 195.927 177.046 196.251C177.046 196.576 177.309 196.838 177.633 196.838Z" fill="#F1F3F2"></path>
	</g>
	<g clip-path="url(#clip4)">
		<path d="M310.823 209.975C307.745 209.975 305.292 212.548 305.44 215.623L306.024 227.807C306.054 228.425 306.564 228.912 307.184 228.912H314.461C315.081 228.912 315.591 228.425 315.621 227.807L316.206 215.623C316.353 212.548 313.9 209.975 310.823 209.975Z" fill="#F1F3F2"></path>
		<path d="M354.154 209.975H354.154C351.077 209.975 348.624 212.548 348.771 215.623L349.356 227.807C349.386 228.425 349.896 228.912 350.515 228.912H357.793C358.413 228.912 358.923 228.425 358.953 227.807L359.537 215.623C359.685 212.548 357.232 209.975 354.154 209.975Z" fill="#F1F3F2"></path>
		<path d="M328.423 219.014L328.796 216.024C329.197 212.813 326.696 209.976 323.46 209.969H323.46C320.224 209.962 317.712 212.789 318.098 216.002L318.462 219.024C318.57 219.92 318.468 220.829 318.165 221.679L318.096 221.872C317.596 223.273 317.339 224.749 317.336 226.236L317.333 227.748C317.331 228.39 317.851 228.911 318.493 228.911H328.352C328.992 228.911 329.511 228.393 329.512 227.753L329.515 226.218C329.519 224.686 329.252 223.165 328.729 221.725C328.414 220.858 328.309 219.929 328.423 219.014Z" fill="#F1F3F2"></path>
		<path d="M317.713 205.746C317.591 206.029 317.531 206.352 317.56 206.708C317.618 207.429 318.073 208.09 318.734 208.386C319.434 208.7 320.168 208.588 320.725 208.211C320.902 208.338 321.087 208.458 321.287 208.562C322.665 209.281 324.236 209.235 325.525 208.584C325.537 208.661 325.55 208.738 325.576 208.822C325.749 209.369 326.184 209.83 326.749 209.933C327.547 210.078 328.325 209.57 328.505 208.771C328.553 208.56 328.554 208.349 328.515 208.149C328.484 207.992 328.526 207.825 328.632 207.705C328.849 207.459 329.011 207.159 329.089 206.816C329.294 205.906 328.851 205.006 328.068 204.583C328.096 203.603 327.817 202.637 327.267 201.829C327.405 201.625 327.503 201.388 327.529 201.119C327.591 200.482 327.223 199.847 326.637 199.59C326.432 199.5 326.223 199.458 326.02 199.457C325.61 199.455 325.23 199.252 325.061 198.879C324.847 198.408 324.425 198.04 323.882 197.917C323.255 197.775 322.634 197.997 322.233 198.443C321.955 198.752 321.534 198.849 321.135 198.731C320.99 198.688 320.834 198.664 320.669 198.662C319.985 198.654 319.334 199.074 319.072 199.705C318.974 199.938 318.931 200.177 318.935 200.407C318.943 200.863 318.682 201.257 318.257 201.422C317.651 201.657 317.169 202.178 317.014 202.861C316.856 203.56 317.08 204.254 317.547 204.731C317.813 205.002 317.863 205.397 317.713 205.746Z" fill="#F1F3F2"></path>
		<path d="M351.715 207.631C351.325 207.777 350.918 207.851 350.504 207.851C350.425 207.851 350.349 207.84 350.27 207.834C350.571 208.115 350.91 208.363 351.293 208.563C353.567 209.747 356.371 208.864 357.555 206.59C358.74 204.316 357.857 201.512 355.583 200.328C354.599 199.815 353.516 199.691 352.508 199.898L353.735 203.207C354.393 204.982 353.487 206.966 351.715 207.631Z" fill="#F1F3F2"></path>
		<path d="M371.714 221.725C371.399 220.858 371.294 219.929 371.408 219.014L371.781 216.024C372.181 212.813 369.681 209.976 366.445 209.969C363.208 209.962 360.696 212.789 361.083 216.002L361.447 219.024C361.555 219.92 361.453 220.829 361.15 221.679L361.081 221.872C360.581 223.273 360.324 224.749 360.321 226.237L360.317 227.748C360.316 228.39 360.836 228.911 361.478 228.911H371.336C371.976 228.911 372.495 228.393 372.497 227.753L372.5 226.218C372.503 224.686 372.237 223.165 371.714 221.725Z" fill="#F1F3F2"></path>
		<path d="M362.509 202.301C361.325 204.575 362.208 207.378 364.482 208.563C366.756 209.747 369.56 208.864 370.744 206.59C371.457 205.222 371.417 203.663 370.779 202.38C371.291 202.185 371.724 201.789 371.939 201.238C372.341 200.204 371.83 199.04 370.796 198.637C370.223 198.414 369.614 198.48 369.113 198.752C368.951 198.503 368.715 198.3 368.417 198.184C367.659 197.888 366.805 198.264 366.509 199.022C366.408 199.283 366.39 199.554 366.436 199.81C364.831 199.878 363.305 200.774 362.509 202.301Z" fill="#F1F3F2"></path>
		<path d="M345.108 197.012L348.381 205.249C348.546 205.665 348.823 206.001 349.16 206.247C349.548 206.53 350.018 206.691 350.505 206.691C350.771 206.691 351.043 206.644 351.307 206.544C352.485 206.102 353.084 204.791 352.647 203.611L351.41 200.275L347.493 189.711C346.65 187.435 344.479 185.925 342.052 185.925H337.755C336.081 185.925 334.533 185.035 333.691 183.588L327.557 173.044C327.111 172.277 326.312 171.862 325.5 171.862C324.98 171.862 324.456 172.031 324.014 172.387V172.387C323.149 173.082 322.88 174.284 323.367 175.281L331.9 192.756C333.311 195.397 331.968 199.67 331.207 204.435C330.674 207.77 330.638 209.968 330.895 212.854C331.413 218.675 332.06 229.42 332.325 233.955C332.394 235.14 333.374 236.063 334.561 236.063H334.886C336.076 236.063 337.059 235.132 337.123 233.944L338.229 213.557C338.248 213.217 338.528 212.951 338.868 212.95C338.868 212.95 338.869 212.95 338.87 212.95C339.209 212.95 339.49 213.215 339.51 213.554L340.698 233.953C340.767 235.138 341.748 236.063 342.934 236.063C344.119 236.063 345.098 235.142 345.17 233.96C345.442 229.5 346.073 219.026 346.371 213.209C346.521 210.28 346.466 207.159 345.966 204.435C345.394 201.315 345.181 200.154 345.028 199.004C344.95 198.417 344.965 197.822 345.068 197.239L345.108 197.012Z" fill="#F1F3F2"></path>
		<path d="M339.152 184.227C342.357 184.227 344.955 181.629 344.955 178.424C344.955 178.093 344.921 177.771 344.868 177.456C345.61 178.629 346.859 179.877 348.833 179.877C351.719 179.877 351.685 177.615 351.685 177.615C350.415 177.536 349.349 176.227 347.858 172.928C346.093 169.02 343.449 169.243 343.449 169.243C340.442 169.243 339.76 171.83 339.619 172.644C339.464 172.632 339.309 172.621 339.152 172.621C335.947 172.621 333.348 175.219 333.348 178.424C333.348 181.629 335.947 184.227 339.152 184.227ZM338.135 176.293C339.128 177.619 340.848 179.031 343.713 179.273C343.312 181.428 341.421 183.067 339.152 183.067C336.592 183.067 334.509 180.984 334.509 178.424C334.509 178.295 334.518 178.168 334.528 178.041C336.424 177.831 337.74 176.681 338.135 176.293Z" fill="#F1F3F2"></path>
		<path d="M318.813 197.531C321.258 196.761 322.616 194.154 321.846 191.708C321.076 189.262 318.469 187.904 316.023 188.675C313.577 189.445 312.219 192.052 312.99 194.497C313.76 196.943 316.367 198.301 318.813 197.531Z" fill="#F1F3F2"></path>
		<path d="M312.218 208.873C314.663 208.103 316.021 205.496 315.251 203.05C314.481 200.605 311.874 199.247 309.428 200.017C306.982 200.787 305.624 203.394 306.395 205.84C307.165 208.285 309.772 209.643 312.218 208.873Z" fill="#F1F3F2"></path>
		<path d="M361.428 197.531C363.873 196.761 365.231 194.154 364.461 191.708C363.691 189.262 361.084 187.904 358.638 188.675C356.192 189.445 354.834 192.052 355.605 194.497C356.375 196.943 358.982 198.301 361.428 197.531Z" fill="#F1F3F2"></path>
	</g>
	<defs>
		<clipPath id="clip0">
			<rect width="67.5" height="67.5" fill="white" transform="translate(34 169.24)"></rect>
		</clipPath>
		<clipPath id="clip1">
			<rect width="67.5" height="67.5" fill="white" transform="translate(170 34.2402)"></rect>
		</clipPath>
		<clipPath id="clip2">
			<rect width="67.5" height="67.5" fill="white" transform="translate(305 34.2402)"></rect>
		</clipPath>
		<clipPath id="clip3">
			<rect width="67.5" height="67.5" fill="white" transform="translate(170 169.24)"></rect>
		</clipPath>
		<clipPath id="clip4">
			<rect width="67.5" height="67.5" fill="white" transform="translate(305 169.24)"></rect>
		</clipPath>
	</defs>
</svg>